<?xml version="1.0" encoding="UTF-8"?>
<svg version="1.1" xmlns="http://www.w3.org/2000/svg" width="675" height="675">
<path d="M0 0 C222.75 0 445.5 0 675 0 C675 222.75 675 445.5 675 675 C452.25 675 229.5 675 0 675 C0 452.25 0 229.5 0 0 Z " fill="#F6C201" transform="translate(0,0)"/>
<path d="M0 0 C222.75 0 445.5 0 675 0 C675 222.75 675 445.5 675 675 C452.25 675 229.5 675 0 675 C0 452.25 0 229.5 0 0 Z M82.75893676 42.10436216 C81 43 81 43 77.75 44.1875 C59.00826462 52.20149997 43.86133901 71.91231374 36.05859375 90.13671875 C32.66048505 99.32791313 29.88154775 108.76333929 29.86857224 118.61585903 C29.86473109 119.71582445 29.86088995 120.81578986 29.8569324 121.94908756 C29.85779888 123.14702743 29.85866537 124.3449673 29.85955811 125.57920837 C29.85658698 126.86007043 29.85361586 128.14093248 29.8505547 129.46060854 C29.84250658 133.00959303 29.84069635 136.55855726 29.83995724 140.10754979 C29.8381028 143.93803835 29.83055336 147.7685165 29.82382202 151.59899902 C29.81025239 159.97334931 29.80421574 168.3476948 29.79981136 176.72205424 C29.79704588 181.95554312 29.7928079 187.18903015 29.78830719 192.42251778 C29.77611491 206.92444588 29.76581643 221.42637251 29.7624321 235.92830563 C29.76221253 236.85611901 29.76199297 237.7839324 29.76176675 238.73986134 C29.76154847 239.66984947 29.76133019 240.5998376 29.7611053 241.55800718 C29.76066184 243.44239867 29.76021528 245.32679015 29.75976562 247.21118164 C29.7595442 248.14589763 29.75932277 249.08061362 29.75909463 250.04365433 C29.75515032 265.1745334 29.73770735 280.30536419 29.7144061 295.43622463 C29.69065307 310.98658957 29.6782284 326.53693034 29.67706418 342.08731371 C29.67614949 350.81181089 29.67044948 359.53624522 29.65224457 368.26072502 C29.63678997 375.69318735 29.63175447 383.1255674 29.63998267 390.55804276 C29.64387067 394.34522807 29.64305105 398.132248 29.62892532 401.91941261 C29.33278656 422.6761021 29.33278656 422.6761021 33 443 C33.2172813 443.78505385 33.43456261 444.57010771 33.65842819 445.37895107 C40.78444474 469.03731782 58.52831857 488.48080153 80.05859375 500.10546875 C90.81223484 505.53623733 102.8019472 509.16063353 114.84659004 509.13142776 C116.02794118 509.13450672 116.02794118 509.13450672 117.23315799 509.13764787 C119.88227113 509.14331948 122.5313323 509.14186041 125.18045044 509.14044189 C127.09495887 509.14302544 129.00946677 509.14603857 130.92397392 509.1494453 C136.19317494 509.15751984 141.46236234 509.15930512 146.73156881 509.16004276 C152.41136637 509.16189253 158.09115685 509.1694395 163.77095032 509.17617798 C176.19454937 509.18976519 188.61814519 509.19578666 201.04175043 509.20018864 C208.7980662 509.20295047 216.55438072 509.20718773 224.31069565 509.21169281 C245.78250894 509.22388612 267.25432061 509.2342206 288.72613716 509.2375679 C290.11451741 509.23778953 291.50289765 509.23801132 292.8912779 509.23823325 C294.28299534 509.23845389 295.67471277 509.23867438 297.06643021 509.2388947 C299.85841441 509.23933725 302.65039861 509.23978437 305.44238281 509.24023438 C306.13463188 509.24034377 306.82688095 509.24045316 307.54010727 509.24056586 C329.98316073 509.24419599 352.42618188 509.26011449 374.86922296 509.28342474 C398.6021695 509.30802962 422.33509384 509.32173433 446.06805408 509.32293582 C459.00328456 509.32385274 471.93847273 509.32960933 484.87369156 509.34775543 C495.88847784 509.36315291 506.90320875 509.36827895 517.91800375 509.36001733 C523.5375324 509.35610957 529.15694952 509.35704669 534.77646446 509.37107468 C539.92354873 509.38380578 545.07043757 509.38262289 550.21752153 509.37048396 C552.07691132 509.36852561 553.93631492 509.37161178 555.79568531 509.38032833 C565.38040787 509.42240615 573.83477968 509.14056441 583 506 C584.55996654 505.61459679 586.12223082 505.23826802 587.6875 504.875 C609.87836291 498.09053236 626.7496205 480.5704276 638 461 C638.61488281 460.04867187 638.61488281 460.04867187 639.2421875 459.078125 C647.05473343 446.84452594 648.30840881 430.8971526 648.24723816 416.79933167 C648.25085978 414.86845535 648.25085978 414.86845535 648.25455457 412.89857143 C648.26091927 409.35505482 648.25493809 405.81165388 648.24679029 402.26814497 C648.24017476 398.43507696 648.24517014 394.60202109 648.24867249 390.76895142 C648.25369953 383.27131389 648.24809151 375.77372068 648.23882218 368.27608866 C648.2284068 359.53521074 648.22850922 350.79434224 648.22899476 342.05345928 C648.2294948 326.45123893 648.22035006 310.84903911 648.20581055 295.24682617 C648.19172678 280.12572862 648.18463974 265.00464913 648.18530273 249.88354492 C648.18536267 248.48670171 648.18536267 248.48670171 648.18542381 247.06163944 C648.18546417 246.13198176 648.18550452 245.20232409 648.1855461 244.24449497 C648.18623706 227.004332 648.18033919 209.76417666 648.17139288 192.52401616 C648.16838406 186.43909669 648.16731421 180.35417863 648.16686058 174.2692585 C648.16617637 166.84746193 648.16168302 159.42567824 648.15252777 152.00388712 C648.14793058 148.22114685 648.14485656 144.43842296 648.14612198 140.6556797 C648.14742994 136.54631903 648.14093646 132.43700651 648.13371277 128.32765198 C648.13526137 127.14446068 648.13680997 125.96126938 648.1384055 124.7422238 C648.10837669 114.36417331 648.04965116 104.22477033 644.3125 94.4375 C644.0448584 93.71425537 643.7772168 92.99101074 643.50146484 92.24584961 C634.79062425 69.3460856 617.26996188 51.68171189 595.07714844 41.6105957 C579.63342686 34.80916402 564.83839913 33.7008677 548.13912964 33.72584534 C546.24816557 33.72138593 544.35720337 33.71606959 542.46624386 33.70997661 C537.29896013 33.69587085 532.13173676 33.6941319 526.96443653 33.69457352 C521.38005151 33.69291876 515.79569088 33.67984013 510.21131897 33.66838074 C498.01492135 33.64558406 485.81854119 33.63761613 473.62212515 33.63255429 C465.99970969 33.62929158 458.37729924 33.62276571 450.75488663 33.6155529 C429.62933207 33.59599526 408.50378145 33.57950441 387.3782177 33.57667637 C386.7034222 33.57658231 386.0286267 33.57648825 385.33338285 33.57639134 C382.59904694 33.57601288 379.86471103 33.57564888 377.13037513 33.57528836 C375.07259383 33.57501664 373.01481254 33.57473996 370.95703125 33.57446289 C370.2770604 33.57437487 369.59708955 33.57428685 368.89651352 33.57419616 C347.53936671 33.57129177 326.18231048 33.54919983 304.82519531 33.51293945 C280.79848551 33.47214707 256.77184656 33.44853688 232.74509346 33.44821686 C220.03549715 33.44763321 207.32601747 33.43920037 194.61645126 33.41021919 C183.79456137 33.3856548 172.9728307 33.37845673 162.15092044 33.39346672 C156.63558401 33.40061438 151.12056166 33.39987063 145.60526085 33.37705612 C140.54430951 33.35632262 135.48391088 33.35919948 130.42296459 33.37993097 C128.60404582 33.3833985 126.78508598 33.37863382 124.96622096 33.36422653 C110.21264548 33.25500876 95.95241671 35.08180867 82.75893676 42.10436216 Z " fill="#FEFEFE" transform="translate(0,0)"/>
<path d="M0 0 C3.88711297 1.94355649 4.66352867 2.50419625 6.8828125 5.89453125 C7.40512451 6.67868408 7.92743652 7.46283691 8.46557617 8.27075195 C9.01318604 9.10952881 9.5607959 9.94830566 10.125 10.8125 C13.99369275 16.60875194 17.8778766 22.3339888 22.1875 27.8125 C26.903944 33.83187118 31.35140596 40.00818842 35.76318359 46.25146484 C37.7712222 49.09030663 39.79147145 51.92039767 41.8125 54.75 C42.21944092 55.32000732 42.62638184 55.89001465 43.0456543 56.47729492 C49.75445878 65.8649668 56.52705648 75.20706325 63.296875 84.55078125 C69.07734968 92.53420441 74.81171614 100.5464862 80.48291016 108.60791016 C85.71107049 116.02946453 91.032523 123.38265054 96.35888672 130.73388672 C99.07648173 134.486448 101.78794473 138.24343419 104.5 142 C105.58330362 143.50002146 106.66663696 145.00002146 107.75 146.5 C130.5 178 130.5 178 153.25 209.5 C154.05473755 210.6142334 154.05473755 210.6142334 154.87573242 211.75097656 C155.95667191 213.24768701 157.03756401 214.74443168 158.1184082 216.24121094 C160.8629754 220.04182637 163.60841966 223.84180298 166.35546875 227.640625 C174.90511636 239.46582749 183.41125966 251.31884963 191.8125 263.25 C196.536653 269.95846465 201.32440651 276.61848493 206.1394043 283.26196289 C209.84115717 288.37627767 213.49565817 293.52160112 217.125 298.6875 C221.8418031 305.39912584 226.65471406 312.03363831 231.52734375 318.6328125 C231.93065918 319.18227539 232.33397461 319.73173828 232.74951172 320.29785156 C233.63726416 321.50624868 234.53004409 322.71095951 235.42626953 323.91308594 C239 328.77597032 239 328.77597032 239 331 C160.13 331 81.26 331 0 331 C0 221.77 0 112.54 0 0 Z " fill="#253C7E" transform="translate(340,130)"/>
<path d="M0 0 C25.88674737 -0.09352171 51.77346935 -0.16401768 77.66035175 -0.20724869 C89.68060777 -0.22785686 101.7007587 -0.2559442 113.72094727 -0.30175781 C124.20011075 -0.34167887 134.67919811 -0.3674455 145.15843552 -0.37635398 C150.70498117 -0.38155976 156.25130907 -0.3937591 161.79778481 -0.42292023 C167.02377951 -0.45017247 172.24946779 -0.45842516 177.47552681 -0.45243073 C179.38825397 -0.45352658 181.30099191 -0.46142172 183.21365738 -0.4768219 C193.15901671 -0.55293672 201.87791743 -0.56414987 211 4 C211 4.66 211 5.32 211 6 C212.07121094 6.12761719 212.07121094 6.12761719 213.1640625 6.2578125 C221.75745972 8.50677321 228.05088916 16.72629543 232.5625 23.93359375 C236.47865483 32.28734795 237.43408367 39.97826234 237.36076355 49.13613892 C237.36332682 50.32074624 237.3658901 51.50535357 237.36853105 52.72585809 C237.37259504 55.98705353 237.36330787 59.24788479 237.34819686 62.50903726 C237.33517351 66.03581948 237.33963039 69.56258646 237.34190369 73.08938599 C237.34347246 79.1908731 237.33410483 85.29226355 237.31719017 91.39372635 C237.29275082 100.21526969 237.28498986 109.03676655 237.2812262 117.85834007 C237.27466944 132.17267635 237.25472937 146.48696117 237.22631836 160.80126953 C237.19875768 174.70165755 237.17753395 188.60203156 237.16479492 202.50244141 C237.16361267 203.78888264 237.16361267 203.78888264 237.16240653 205.10131259 C237.15849125 209.40401868 237.15470017 213.70672487 237.15097082 218.00943112 C237.11989907 253.67299075 237.06708445 289.33649062 237 325 C233.77734151 321.85266873 231.20861353 318.63656442 228.625 314.9375 C224.55213434 309.1528726 220.39623792 303.43649577 216.1875 297.75 C211.58677484 291.52699259 207.02058544 285.28146701 202.5 279 C198.03984469 272.80341727 193.53740312 266.64023905 189 260.5 C181.72040486 250.6460488 174.55169487 240.71425404 167.39550781 230.77050781 C160.72765706 221.50847805 154.01322961 212.28415107 147.23071289 203.10571289 C143.28592851 197.76164238 139.38048533 192.39090687 135.5 187 C128.74016251 177.61219227 121.87582656 168.30303505 115 159 C107.57940327 148.9598876 100.18803961 138.90202492 92.89428711 128.76928711 C88.9660112 123.31893063 84.99287964 117.90316826 81 112.5 C75.91794922 105.6229644 70.88997203 98.70966917 65.89453125 91.76953125 C61.96607984 86.31916162 57.99294732 80.90325984 54 75.5 C48.91794922 68.6229644 43.88997203 61.70966917 38.89453125 54.76953125 C34.39096853 48.5212469 29.82477697 42.32062388 25.24584961 36.12744141 C20.58975274 29.82186359 16.00109343 23.46959555 11.4309082 17.1015625 C8.1005308 12.47595167 4.68809368 7.94140246 1.07421875 3.53125 C0 2 0 2 0 0 Z " fill="#263C7E" transform="translate(364,81)"/>
<path d="M0 0 C1.1686517 -0.00480972 1.1686517 -0.00480972 2.36091253 -0.0097166 C4.96327979 -0.01799689 7.56541571 -0.01209921 10.1677866 -0.00622082 C12.05586017 -0.00924243 13.94393252 -0.01313196 15.8320027 -0.01781338 C21.01445095 -0.02810148 26.19683008 -0.02590944 31.37928402 -0.02163279 C36.97121212 -0.01916694 42.56312352 -0.02817818 48.15504551 -0.03567028 C59.10987455 -0.04842487 70.0646791 -0.05020988 81.01951431 -0.04787002 C89.92745724 -0.04608693 98.83539273 -0.0478363 107.74333477 -0.05209446 C109.01123337 -0.05268965 110.27913197 -0.05328484 111.58545174 -0.05389806 C114.16128504 -0.05510983 116.73711834 -0.05632396 119.31295163 -0.05754044 C136.61179563 -0.06532904 153.91063524 -0.06924597 171.20948029 -0.06522369 C171.8858563 -0.06506732 172.56223232 -0.06491094 173.25910458 -0.06474983 C176.68705873 -0.06394407 180.11501287 -0.0630983 183.54296701 -0.06223653 C184.56412236 -0.06197989 184.56412236 -0.06197989 185.60590712 -0.06171808 C186.98259198 -0.06137142 188.35927684 -0.06102289 189.7359617 -0.06067249 C211.13924277 -0.05531976 232.54248259 -0.0632331 253.94575596 -0.08170605 C278.00866478 -0.10245031 302.07154168 -0.11311272 326.13446242 -0.10913056 C338.86862742 -0.10722005 351.60275488 -0.10969114 364.33691311 -0.1238451 C375.18237763 -0.1357778 386.02778152 -0.13714289 396.8732469 -0.12505493 C402.40240049 -0.11917848 407.93144329 -0.11803249 413.46058941 -0.13005733 C418.53200608 -0.14095799 423.60322001 -0.13776326 428.67462737 -0.12379565 C430.49971219 -0.12116011 432.32481311 -0.12347891 434.14988207 -0.13153151 C448.81380411 -0.19168987 463.86055044 0.43710694 477.26973057 7.00447559 C478.39447788 7.53379688 478.39447788 7.53379688 479.54194736 8.07381153 C491.37211927 13.75596984 500.63114096 21.07518886 509.89473057 30.25447559 C510.58695713 30.93381153 511.27918369 31.61314747 511.99238682 32.31306934 C519.60189255 40.37325195 524.55106873 50.56478266 528.33223057 60.87947559 C528.5791666 61.53488331 528.82610264 62.19029102 529.08052158 62.86555958 C532.55243325 72.94981174 532.04290587 84.0195063 532.03517246 94.55521107 C532.03962915 96.48419397 532.03962915 96.48419397 532.04417586 98.45214623 C532.05216309 101.98757467 532.05403074 105.52298272 532.05477333 109.05841911 C532.05663836 112.88471215 532.06419256 116.71099496 532.07090855 120.53728199 C532.08443102 128.88648439 532.09050639 137.23568195 532.0949192 145.58489347 C532.09769066 150.80534894 532.10192949 156.02580259 532.10642338 161.24625683 C532.11860562 175.72269321 532.12890859 190.19912814 532.13229847 204.67556953 C532.13251804 205.6001722 532.1327376 206.52477486 532.13296382 207.47739578 C532.1331821 208.40409531 532.13340038 209.33079484 532.13362527 210.28557616 C532.13406872 212.16314876 532.13451529 214.04072136 532.13496494 215.91829395 C532.13518637 216.84961693 532.1354078 217.78093991 532.13563594 218.7404848 C532.13958429 233.83218326 532.15704413 248.92383346 532.18032447 264.01551328 C532.20407619 279.53894787 532.21650197 295.06235827 532.21766639 310.58581132 C532.21858073 319.29009842 532.22427277 327.99432252 532.242486 336.69859219 C532.25793833 344.10895045 532.26297713 351.5192262 532.2547479 358.92959753 C532.25086016 362.70467316 532.2516785 366.47958286 532.26580524 370.25463772 C532.39079636 405.70618429 532.39079636 405.70618429 524.89473057 421.25447559 C524.41262119 422.25865528 523.93051182 423.26283497 523.43379307 424.29744434 C513.29520686 444.21762429 496.43261197 462.45889134 474.82685947 469.97371387 C469.8900283 471.55379899 464.90664624 472.93444324 459.89473057 474.25447559 C459.31701839 474.43692945 458.73930622 474.61938331 458.14408761 474.80736607 C454.83480104 475.46516006 451.54231308 475.39551387 448.1823616 475.38869667 C447.00453881 475.39222502 447.00453881 475.39222502 445.80292162 475.39582464 C443.15575102 475.40251379 440.5086295 475.40205644 437.86145115 475.40164661 C435.95065639 475.40494531 434.03986232 475.40867089 432.12906915 475.41278809 C426.86533289 475.42281592 421.60160803 475.42652616 416.33786356 475.4291774 C410.66546908 475.43307825 404.99308364 475.44265688 399.32069492 475.45139027 C385.61360446 475.47116303 371.90651324 475.48122286 358.19941208 475.49011806 C351.74449631 475.49450046 345.28958137 475.49986747 338.83466625 475.50510693 C317.37577006 475.52212158 295.91687519 475.53663984 274.45797348 475.54385567 C273.07006912 475.54433042 271.68216476 475.54480631 270.2942604 475.54528333 C269.26185839 475.54563789 269.26185839 475.54563789 268.20859977 475.54599962 C264.7215711 475.5472008 261.23454243 475.54841626 257.74751377 475.54964161 C256.70950039 475.55000183 256.70950039 475.55000183 255.65051704 475.55036934 C233.22872918 475.5582571 210.8069943 475.58167691 188.38522956 475.61419755 C164.67138291 475.6485293 140.95757373 475.6682089 117.2437008 475.67149991 C104.32060836 475.67366417 91.39759376 475.68240037 78.4745245 475.70796108 C67.46640559 475.72968376 56.45838343 475.73771081 45.45024552 475.7279943 C39.83627011 475.72345393 34.22249422 475.72532074 28.60854626 475.74475574 C23.4617812 475.76241898 18.31536077 475.7613639 13.16859189 475.74585845 C11.31380931 475.74348717 9.45900266 475.74778084 7.60425677 475.7596871 C-17.28454331 475.90946692 -39.57451431 467.8304694 -57.80448818 450.55525684 C-69.79998786 438.55975716 -78.48894822 425.65649632 -83.10526943 409.25447559 C-83.35981931 408.37848902 -83.61436918 407.50250244 -83.87663269 406.59997082 C-87.11003359 393.31337155 -86.54073783 379.71790658 -86.51210248 366.13165331 C-86.50733167 362.31149367 -86.51991488 358.49138249 -86.5301199 354.6712389 C-86.54723711 347.20588659 -86.54816272 339.74061871 -86.54290699 332.27525188 C-86.53885089 326.20213916 -86.54032587 320.12905123 -86.54565525 314.05593967 C-86.54640367 313.18864152 -86.54715209 312.32134337 -86.5479232 311.42776345 C-86.54945481 309.66534889 -86.55099316 307.90293433 -86.55253816 306.14051978 C-86.56623753 289.64657763 -86.56084353 273.15268304 -86.54935295 256.658742 C-86.53942273 241.60089303 -86.55236217 226.54316699 -86.57628714 211.48533697 C-86.60072519 195.98664718 -86.61027451 180.48801452 -86.60363442 164.98930585 C-86.6001527 156.3028753 -86.60230471 147.61653921 -86.61988544 138.93012333 C-86.63466642 131.5359665 -86.63516634 124.14197068 -86.61781453 116.74781682 C-86.60935046 112.98256027 -86.607041 109.21759062 -86.62246609 105.45234966 C-86.73810657 75.04325105 -82.13662133 49.91083038 -60.10526943 27.25447559 C-59.48136318 26.56869434 -58.85745693 25.88291309 -58.21464443 25.17635059 C-50.182116 16.60382025 -40.31484308 9.83951942 -29.10526943 6.25447559 C-28.04050381 5.90771778 -26.97573818 5.56095997 -25.87870693 5.20369434 C-17.20710531 2.46267084 -9.14832485 -0.05660717 0 0 Z M-16.91776943 18.62947559 C-17.61579678 18.93369434 -18.31382412 19.23791309 -19.03300381 19.55135059 C-20.40919975 20.15271352 -21.78160076 20.76284993 -23.14970303 21.38240528 C-25.00062209 22.20780889 -26.87872735 22.97144575 -28.75761318 23.73103809 C-47.89130898 32.43832089 -60.74597965 50.7020873 -68.81620693 69.41463184 C-72.34337536 79.15889543 -73.54818803 88.82035466 -73.49294949 99.12378407 C-73.49833502 100.35134066 -73.50372056 101.57889726 -73.5092693 102.84365255 C-73.5210044 106.21157793 -73.51952371 109.57900156 -73.51210248 112.94690573 C-73.50733792 116.59465836 -73.51990966 120.24235991 -73.5301199 123.89009571 C-73.54725083 131.02184397 -73.54815961 138.1535039 -73.54290699 145.28526738 C-73.53885244 151.08811078 -73.54032406 156.89092823 -73.54565525 162.69377041 C-73.54640367 163.52219576 -73.54715209 164.35062111 -73.5479232 165.20415026 C-73.54945481 166.88756416 -73.55099316 168.57097806 -73.55253816 170.25439195 C-73.56624323 186.01584865 -73.56084015 201.77725562 -73.54935295 217.53871117 C-73.53942848 231.92349522 -73.55235119 246.30815049 -73.57628714 260.69291469 C-73.6007363 275.49884899 -73.61027141 290.30472347 -73.60363442 305.11067754 C-73.60015433 313.40872651 -73.60229341 321.7066766 -73.61988544 330.0047102 C-73.63468065 337.07060715 -73.63514841 344.13633562 -73.61781453 351.20222952 C-73.60936076 354.79950361 -73.60701482 358.39647767 -73.62246609 361.99373531 C-73.72749703 388.38894186 -71.18973962 409.07485151 -54.10526943 430.25447559 C-53.41691006 431.10783497 -52.72855068 431.96119434 -52.01933193 432.84041309 C-44.46785765 441.70044609 -35.58638793 448.23215217 -25.29276943 453.56697559 C-24.70229824 453.88037891 -24.11182705 454.19378223 -23.50346279 454.51668262 C-10.51895874 460.9106837 2.44047841 461.83916851 16.61215305 461.75568104 C18.46303608 461.75958159 20.3139161 461.76522805 22.16478914 461.77245194 C27.21188375 461.78711595 32.25866348 461.77707953 37.30574763 461.76271522 C42.76389557 461.7515576 48.22200107 461.76356379 53.68014622 461.77255726 C64.35698292 461.78645891 75.03370101 461.77895639 85.71053202 461.76388168 C98.15407607 461.74698414 110.59759089 461.75023654 123.04114287 461.75397576 C145.91894718 461.76002592 168.79669852 461.74427398 191.67448578 461.71878812 C212.53511127 461.69567244 233.39566742 461.69028697 254.25630283 461.70052052 C277.72447284 461.71194983 301.19261257 461.71384864 324.66078275 461.69942242 C327.16485115 461.69789664 329.66891954 461.69637628 332.17298794 461.69486141 C333.40491455 461.6941036 334.63684117 461.69334578 335.90609889 461.69256501 C344.57247633 461.68782951 353.23883807 461.68966838 361.90521526 461.69392681 C372.47099806 461.69886175 383.03670927 461.69283212 393.60247571 461.67303251 C398.98953254 461.663185 404.37648055 461.65802795 409.76354313 461.66592503 C414.70130492 461.67301519 419.63884775 461.6660996 424.57658082 461.6483214 C426.35631177 461.64429847 428.13606289 461.64524023 429.91578615 461.65184026 C444.98412677 461.70290868 458.09541526 459.83365734 471.89473057 453.25447559 C472.79707432 452.83553028 473.69941807 452.41658497 474.62910557 451.98494434 C492.82797778 442.85920929 508.01000364 425.31487618 515.01973057 406.18416309 C515.5239591 404.4823918 515.99755382 402.77082889 516.42207432 401.04744434 C516.89473057 399.25447559 516.89473057 399.25447559 517.89473057 398.25447559 C519.68307753 389.75667768 520.18421695 381.37036076 520.14869785 372.71338367 C520.15337783 370.92506004 520.15337783 370.92506004 520.15815234 369.10060865 C520.16469235 365.83155859 520.16241618 362.56266023 520.1561799 359.29361427 C520.15161934 355.7522553 520.15865699 352.21091548 520.16413975 348.66956043 C520.17299806 341.74704378 520.17112745 334.82457068 520.16531447 327.90205237 C520.1607828 322.27034523 520.16019156 316.63865023 520.1623621 311.0069418 C520.16266856 310.20291725 520.16297503 309.3988927 520.16329078 308.57050378 C520.16393029 306.93669141 520.16457872 305.30287906 520.16523597 303.6690667 C520.17092911 288.37455649 520.16439791 273.08007031 520.15363523 257.78556404 C520.14470578 244.69144895 520.14624875 231.59736934 520.15547276 218.50325489 C520.16620222 203.26509735 520.17037451 188.02696085 520.16424823 172.78880006 C520.16361119 171.16035227 520.16298245 169.53190448 520.1623621 167.90345669 C520.16205355 167.10242272 520.161745 166.30138876 520.1614271 165.47608104 C520.15970779 159.85938803 520.1625988 154.24270849 520.16732121 148.62601757 C520.17296009 141.76907709 520.17135109 134.91218234 520.16075972 128.05524703 C520.15554237 124.56361453 520.15337801 121.07205797 520.16005802 117.58042622 C520.20496788 86.62820825 517.47985524 61.8134685 495.33223057 38.25447559 C477.05408796 20.39300797 452.94435643 13.43165175 427.99290562 13.64647388 C426.15863178 13.64356936 424.32436036 13.63846786 422.49009788 13.63138998 C417.50283988 13.61839639 412.51611603 13.63619604 407.5289135 13.65948844 C402.13017171 13.67916266 396.73146725 13.66967101 391.33270359 13.66389942 C380.77922982 13.65710616 370.22596401 13.67667348 359.67253275 13.7050627 C347.37221728 13.73700876 335.07193772 13.74131832 322.77158676 13.74425463 C300.82300592 13.75030999 278.87451772 13.77937999 256.92598057 13.82234669 C235.64440319 13.86397139 214.36286925 13.89228874 193.08125401 13.90437794 C191.76952883 13.90512615 190.45780365 13.90587437 189.10632922 13.90664525 C183.83318927 13.90961982 178.5600493 13.91255711 173.28690929 13.91543154 C150.52801629 13.92817454 127.7691329 13.9519057 105.01025075 13.9770698 C101.33125986 13.98104759 97.65226879 13.98476713 93.97327757 13.98842382 C81.09293732 14.00146171 68.21261414 14.01783585 55.33229204 14.04340823 C50.00827945 14.05396739 44.68427633 14.06308511 39.36025524 14.06797886 C34.48261531 14.07254873 29.60500656 14.08176218 24.72738169 14.0946403 C22.9672901 14.09851979 21.20719397 14.10077469 19.44709815 14.10119851 C0.80362746 13.72268296 0.80362746 13.72268296 -16.91776943 18.62947559 Z " fill="#2C417E" transform="translate(116.10526943206787,33.745524406433105)"/>
<path d="M0 0 C1.20825422 -0.00256327 1.20825422 -0.00256327 2.44091761 -0.00517833 C5.13100146 -0.00846383 7.82083403 0.00251492 10.51089478 0.01345825 C12.44278965 0.01402257 14.37468496 0.01370541 16.30657959 0.01257324 C21.54576425 0.01199953 26.7848573 0.02375691 32.02402067 0.03772116 C37.50129958 0.05022538 42.9785806 0.05139878 48.45587158 0.05377197 C58.82548724 0.05998764 69.19506072 0.07639966 79.56465781 0.09647095 C91.37109604 0.11882723 103.1775363 0.12982271 114.98399043 0.13986182 C139.26853531 0.16076579 163.55304276 0.19594348 187.83755493 0.24050903 C186.14763755 3.83622683 184.15946772 6.16327212 181.32974243 8.97879028 C180.42482056 9.88177856 179.51989868 10.78476685 178.58755493 11.71511841 C177.87792603 12.41544189 177.87792603 12.41544189 177.15396118 13.12991333 C175.7329731 14.53285024 174.3203505 15.94424396 172.90786743 17.35574341 C169.08757506 21.15175426 165.26946491 24.88635978 161.17984009 28.39163208 C156.41296905 32.53492154 151.97706104 36.98726808 147.5320282 41.47087097 C146.01943161 42.9964488 144.50354292 44.51868989 142.98684692 46.04019165 C139.76756381 49.27079857 136.55225381 52.50534126 133.33755493 55.74050903 C129.60679844 59.4950203 125.87434742 63.24781516 122.13761902 66.99638367 C120.65784937 68.48254592 119.18116928 69.97172899 117.70462036 71.46109009 C113.88683316 75.29266659 110.09085877 79.09235636 105.97427368 82.60379028 C100.59655131 87.21641853 95.66872659 92.29890912 90.68006897 97.3228302 C88.83139618 99.18442935 86.97947532 101.04274407 85.1267395 102.90029907 C81.19417383 106.84421468 77.26556594 110.79205779 73.33755493 114.74050903 C68.7807171 119.32105933 64.22221086 123.89992353 59.65943909 128.4745636 C57.84729689 130.29312194 56.0382265 132.11469699 54.22927856 133.93643188 C49.25529247 138.93230045 44.2627434 143.82854854 38.89627075 148.40664673 C34.6220739 152.21401461 30.636624 156.33487387 26.60604858 160.39685059 C24.92541253 162.09043765 23.24150864 163.7807168 21.55679321 165.47024536 C17.98086956 169.05750717 14.40891061 172.64870023 10.83755493 176.24050903 C6.6937567 180.40803876 2.54827832 184.57386878 -1.60147095 188.73547363 C-3.24742613 190.38783435 -4.89030152 192.04321368 -6.53305054 193.69876099 C-11.36705322 198.55618806 -16.2399746 203.30390245 -21.45251465 207.7598877 C-23.98966971 209.95679926 -26.3460712 212.29438968 -28.72103882 214.66629028 C-29.19566055 215.13995529 -29.67028229 215.6136203 -30.1592865 216.10163879 C-31.14423143 217.08591249 -32.1279524 218.07141251 -33.11044312 219.05813599 C-34.61816602 220.57129569 -36.13126265 222.07893788 -37.64486694 223.58621216 C-38.60807899 224.55008377 -39.57098146 225.51426487 -40.53353882 226.47879028 C-41.39906372 227.34544312 -42.26458862 228.21209595 -43.15634155 229.10501099 C-45.19922247 231.07535664 -45.19922247 231.07535664 -46.16244507 233.24050903 C-46.82244507 233.24050903 -47.48244507 233.24050903 -48.16244507 233.24050903 C-48.25597047 207.74491365 -48.32646455 182.24934406 -48.36969376 156.75361156 C-48.39030114 144.91495713 -48.41838698 133.07640942 -48.46420288 121.23782349 C-48.50412635 110.91687313 -48.52989113 100.59600008 -48.53879905 90.27497464 C-48.54400443 84.81226454 -48.55620116 79.34977556 -48.5853653 73.88713646 C-48.61262135 68.739935 -48.62086947 63.59304466 -48.61487579 58.44577789 C-48.61597148 56.56207651 -48.62386435 54.67836415 -48.63926697 52.79472542 C-48.75580503 37.800776 -46.97063378 25.27372447 -36.02182007 14.04519653 C-30.03077702 8.52284052 -24.33585566 4.40751588 -16.25228882 2.73269653 C-14.04016243 2.262458 -14.04016243 2.262458 -11.54198265 1.22477913 C-7.63103976 0.08574042 -4.03229749 -0.03152509 0 0 Z " fill="#263C7E" transform="translate(126.16244506835938,80.75949096679688)"/>
<path d="M0 0 C7.26 0 14.52 0 22 0 C22.99 2.97 23.98 5.94 25 9 C25.60957122 10.80896677 26.22007826 12.61761881 26.83203125 14.42578125 C30.46547941 25.21027137 33.99086048 36.00718911 37.18481445 46.9309082 C38.35090641 51.05603271 38.35090641 51.05603271 40 55 C40.22328476 54.3257045 40.44656952 53.651409 40.67662048 52.9566803 C42.77772972 46.61333782 44.88169838 40.27095198 46.98891354 33.92963505 C48.0722438 30.66919113 49.15445074 27.40838317 50.23413086 24.14672852 C51.47440019 20.40010514 52.7194831 16.65509054 53.96484375 12.91015625 C54.35341049 11.73413345 54.74197723 10.55811066 55.14231873 9.34645081 C55.50261673 8.26540573 55.86291473 7.18436066 56.23413086 6.07055664 C56.55167831 5.11347305 56.86922577 4.15638947 57.19639587 3.17030334 C58 1 58 1 59 0 C66.26 0 73.52 0 81 0 C81 24.75 81 49.5 81 75 C76.05 75 71.1 75 66 75 C65.67 56.85 65.34 38.7 65 20 C59.06 38.15 53.12 56.3 47 75 C42.05 75 37.1 75 32 75 C28.66029918 66.06138899 25.81573051 57.1091663 23.24291992 47.92138672 C21.2886279 40.95270128 19.17920778 34.04741857 16.98046875 27.15234375 C16.2457561 24.79014013 15.59999062 22.39996247 15 20 C14.67 38.15 14.34 56.3 14 75 C9.38 75 4.76 75 0 75 C0 50.25 0 25.5 0 0 Z " fill="#294081" transform="translate(41,544)"/>
<path d="M0 0 C43.22127139 0 43.22127139 0 50.73046875 7.47265625 C54.08034727 11.50281779 54.43468243 15.56251706 54.32421875 20.65234375 C53.59969541 25.89859106 51.00600607 30.54898218 47 34 C46.01 34.33 45.02 34.66 44 35 C44.53109375 35.268125 45.0621875 35.53625 45.609375 35.8125 C50.29786433 38.41341379 53.26589496 40.76200992 55.375 45.76171875 C56.95996225 51.43786482 56.8249075 56.83440897 54.4375 62.25 C49.46075162 70.80378628 43.87734804 72.30617781 34 75 C22.78 75 11.56 75 0 75 C0 50.25 0 25.5 0 0 Z " fill="#273E80" transform="translate(369,544)"/>
<path d="M0 0 C7.99717541 6.86177396 11.16055021 15.71170338 12 26 C12.72964146 40.1579057 13.48707786 55.41662732 4 67 C-0.5245036 71.90050112 -5.24204398 73.66307981 -11.83203125 74.25390625 C-19.50572759 74.55313214 -24.71244548 73.56447525 -30.64453125 68.6328125 C-38.45250548 60.68646911 -40.6182608 49.51293508 -40.63476562 38.77929688 C-40.61091797 37.51150391 -40.58707031 36.24371094 -40.5625 34.9375 C-40.57345703 33.66583984 -40.58441406 32.39417969 -40.59570312 31.08398438 C-40.51484045 20.5772276 -39.08618638 10.17360857 -31.51171875 2.33203125 C-23.54825628 -4.68486979 -9.00579064 -5.89145335 0 0 Z " fill="#293F81" transform="translate(256,546)"/>
<path d="M0 0 C36.18518519 0 36.18518519 0 45.875 5.6875 C49.98170765 10.1565642 52.19141159 15.42400052 52.5 21.5 C52.18483572 27.3254559 50.31895103 32.58291964 46.24609375 36.828125 C44.54244979 38.29347221 42.79581808 39.65092484 41 41 C40.34 41.66 39.68 42.32 39 43 C39.60585938 43.89831543 40.21171875 44.79663086 40.8359375 45.72216797 C43.07691535 49.0475063 45.31183502 52.37687808 47.54492188 55.70751953 C48.51331756 57.15003914 49.48336525 58.59145112 50.45507812 60.03173828 C51.84938665 62.09901408 53.23775682 64.17016609 54.625 66.2421875 C55.06247559 66.88807831 55.49995117 67.53396912 55.95068359 68.19943237 C59 72.77225659 59 72.77225659 59 75 C53.33349448 76.01638376 47.55258127 76.94673173 42 75 C36.82071024 70.64134723 33.99552463 63.93928786 31 58 C29.81694793 55.79895952 28.58396881 53.65324807 27.3125 51.5 C26.85488281 50.6440625 26.39726562 49.788125 25.92578125 48.90625 C23.49315113 46.11072479 23.49315113 46.11072479 16 46 C16 55.57 16 65.14 16 75 C10.72 75 5.44 75 0 75 C0 50.25 0 25.5 0 0 Z " fill="#283F81" transform="translate(440,544)"/>
<path d="M0 0 C5.61 0 11.22 0 17 0 C17 9.57 17 19.14 17 29 C26.57 29 36.14 29 46 29 C46 19.43 46 9.86 46 0 C51.28 0 56.56 0 62 0 C62 24.75 62 49.5 62 75 C56.72 75 51.44 75 46 75 C46 64.11 46 53.22 46 42 C36.1 42 26.2 42 16 42 C16 52.89 16 63.78 16 75 C10.72 75 5.44 75 0 75 C0 50.25 0 25.5 0 0 Z " fill="#2A4082" transform="translate(140,544)"/>
<path d="M0 0 C0.76892578 -0.01224609 1.53785156 -0.02449219 2.33007812 -0.03710938 C9.42958838 -0.05508282 15.64421876 1.32481446 22.1875 4.1875 C21.59645235 9.03409077 20.20805843 12.79498167 18.1875 17.1875 C17.37667969 16.9709375 16.56585937 16.754375 15.73046875 16.53125 C6.21909974 14.13956699 -3.24081368 11.76961944 -12.1640625 16.99609375 C-17.09453977 20.55959035 -19.18674361 25.47407435 -20.8125 31.1875 C-21.22947523 34.20198761 -21.27853009 37.14774896 -21.25 40.1875 C-21.26998047 40.94289063 -21.28996094 41.69828125 -21.31054688 42.4765625 C-21.30518069 48.72280045 -19.70215986 54.13561195 -15.32958984 58.75366211 C-10.39392536 63.03861225 -6.38370785 63.32539004 -0.125 63.25 C2.288125 63.229375 4.70125 63.20875 7.1875 63.1875 C7.1875 57.9075 7.1875 52.6275 7.1875 47.1875 C2.5675 47.1875 -2.0525 47.1875 -6.8125 47.1875 C-6.8125 42.8975 -6.8125 38.6075 -6.8125 34.1875 C3.0875 34.1875 12.9875 34.1875 23.1875 34.1875 C23.1875 47.0575 23.1875 59.9275 23.1875 73.1875 C8.98764682 77.44745596 -8.30330245 80.71609878 -22.26171875 73.78515625 C-31.8310913 67.79147574 -36.10440152 59.54546267 -38.625 48.6875 C-39.34509115 35.24579846 -39.33977227 23.2672817 -30.8125 12.1875 C-22.25803369 2.78659176 -12.31943713 0.01017295 0 0 Z " fill="#283F81" transform="translate(611.8125,542.8125)"/>
<path d="M0 0 C5.07765443 2.77499719 8.32811989 6.87357072 11.1875 11.8125 C13.00656622 19.45257812 11.84107653 25.72679632 7.8125 32.4375 C3.30799289 39.15390459 -2.20971763 44.76202614 -7.9375 50.4375 C-8.79988281 51.30761719 -9.66226562 52.17773438 -10.55078125 53.07421875 C-11.37449219 53.89535156 -12.19820313 54.71648438 -13.046875 55.5625 C-14.16787598 56.68011719 -14.16787598 56.68011719 -15.31152344 57.8203125 C-17.1875 59.4375 -17.1875 59.4375 -19.1875 59.4375 C-19.1875 60.0975 -19.1875 60.7575 -19.1875 61.4375 C-8.2975 61.4375 2.5925 61.4375 13.8125 61.4375 C13.8125 65.7275 13.8125 70.0175 13.8125 74.4375 C-3.6775 74.4375 -21.1675 74.4375 -39.1875 74.4375 C-39.1875 63.4375 -39.1875 63.4375 -36.37109375 59.58203125 C-35.14847724 58.44270735 -33.89834736 57.33232923 -32.625 56.25 C-31.3278077 55.0577491 -30.03221601 53.86375422 -28.73828125 52.66796875 C-28.11775879 52.11028809 -27.49723633 51.55260742 -26.85791016 50.97802734 C-24.85158001 49.12769948 -23.06583575 47.15254191 -21.3125 45.0625 C-19.04489291 42.35969559 -16.64157093 39.96963287 -14.0625 37.5625 C-8.87599177 32.42644419 -5.67772103 26.81457821 -4.625 19.5625 C-5.002224 16.42916297 -5.002224 16.42916297 -6.625 14 C-10.47044279 11.65521781 -13.79878246 11.70123489 -18.1875 12.4375 C-20.34146735 13.26062324 -22.26994705 14.21583483 -24.265625 15.3671875 C-26.1875 16.4375 -26.1875 16.4375 -31.1875 18.4375 C-33.8275 15.4675 -36.4675 12.4975 -39.1875 9.4375 C-29.84599702 -1.90575362 -13.58715739 -5.25584298 0 0 Z " fill="#283E80" transform="translate(315.1875,544.5625)"/>
<path d="M0 0 C0.495 0.99 0.495 0.99 1 2 C0.26821134 4.07196631 -0.55899003 6.1108552 -1.4375 8.125 C-1.91058594 9.22070312 -2.38367188 10.31640625 -2.87109375 11.4453125 C-3.24363281 12.28835938 -3.61617187 13.13140625 -4 14 C-4.75023437 13.71125 -5.50046875 13.4225 -6.2734375 13.125 C-13.56025952 10.48192098 -20.33656609 8.32972945 -28 10.58984375 C-33.35252996 13.09307436 -35.7531824 17.7264777 -38 23 C-40.89207758 31.74944989 -39.68644364 42.67781394 -36 51 C-33.36432918 55.27160444 -30.73946048 57.33241205 -26 59 C-17.82934991 60.10047501 -9.89758394 57.91180706 -2 56 C-2 60.29 -2 64.58 -2 69 C-3.19625 69.474375 -4.3925 69.94875 -5.625 70.4375 C-6.29789063 70.70433594 -6.97078125 70.97117187 -7.6640625 71.24609375 C-17.35706261 74.3744366 -29.50849322 74.7408637 -38.7890625 70.31640625 C-47.25550169 65.27543451 -51.79683824 59.00167114 -54.74609375 49.62890625 C-57.59413749 37.66712254 -57.22870913 23.53430388 -51.7109375 12.3984375 C-47.12545892 5.06657602 -41.25031594 -0.33721432 -33.05859375 -3.3046875 C-22.0889138 -5.79843339 -10.23619866 -4.67453072 0 0 Z " fill="#283E80" transform="translate(562,547)"/>
<path d="M0 0 C3.75833031 3.26381317 5.12700884 7.20695286 6 12 C6.28506074 16.12827737 6.27926848 20.23838876 6.25 24.375 C6.25773437 25.46039062 6.26546875 26.54578125 6.2734375 27.6640625 C6.23671155 42.86860382 6.23671155 42.86860382 1.8125 49.0625 C-1.78993122 51.54417484 -3.70861868 51.70222603 -8 51 C-11.81364626 48.32014046 -12.78417376 45.39318549 -14 41 C-14.3792551 36.44192733 -14.37163254 31.88644452 -14.37060547 27.31494141 C-14.37497482 25.13754796 -14.41133588 22.96219149 -14.44921875 20.78515625 C-14.50922981 13.33929975 -14.36163651 7.33977649 -10 1 C-6.78322127 -0.60838936 -3.47952314 -0.60063197 0 0 Z " fill="#FCFCFD" transform="translate(246,556)"/>
<path d="M0 0 C1.98 0.99 1.98 0.99 4 2 C3.67 2.66 3.34 3.32 3 4 C2.90074364 5.78216198 2.86611461 7.56805839 2.8613348 9.35297585 C2.85586036 10.4960283 2.85038591 11.63908075 2.84474558 12.81677115 C2.84376747 14.08328556 2.84278936 15.34979997 2.84178162 16.6546936 C2.83721848 18.00523094 2.83221882 19.35576685 2.82681805 20.70630109 C2.81319927 24.43009393 2.8058078 28.15387761 2.79939139 31.87768888 C2.79140382 35.88860878 2.77770042 39.89950951 2.76467896 43.91041565 C2.74289283 50.86377998 2.72475617 57.81714622 2.70907402 64.77052689 C2.68639481 74.82404033 2.65824931 84.87753257 2.62875474 94.93102805 C2.58105489 111.24079321 2.5377972 127.55056702 2.49731445 143.86035156 C2.45797169 159.70703811 2.41654841 175.55371695 2.37231445 191.40039062 C2.36959018 192.37661273 2.36686591 193.35283484 2.36405908 194.35863943 C2.35037981 199.25588956 2.33665949 204.15313957 2.32291877 209.05038953 C2.2089164 249.70024366 2.10211538 290.35011438 2 331 C1.34 331 0.68 331 0 331 C0 221.77 0 112.54 0 0 Z " fill="#60615B" transform="translate(340,130)"/>
<path d="M0 0 C15.39433771 -0.43983822 15.39433771 -0.43983822 21 3 C23.48386059 6.72579089 23.3804212 8.58711402 23 13 C21.875 15.8125 21.875 15.8125 20 18 C13.40467776 20.80301195 7.05997908 20.13320715 0 20 C0 13.4 0 6.8 0 0 Z " fill="#F9FAFB" transform="translate(385,586)"/>
<path d="M0 0 C12.87363695 -0.57216164 12.87363695 -0.57216164 18 4 C19.65094122 5.65094122 19.28867693 7.54485937 19.375 9.8125 C19.34749962 14.6250662 19.34749962 14.6250662 16.625 17.5625 C12.61187383 19.76016433 10.49038579 20.11159985 5.875 20.0625 C2.966875 20.0315625 2.966875 20.0315625 0 20 C0 13.4 0 6.8 0 0 Z " fill="#FCFDFD" transform="translate(456,557)"/>
<path d="M0 0 C3.5578125 -0.0928125 3.5578125 -0.0928125 7.1875 -0.1875 C8.29387817 -0.22846802 8.29387817 -0.22846802 9.42260742 -0.27026367 C13.84236338 -0.32577175 16.46742902 0.35888761 20 3 C21.87643761 4.87643761 21.17984987 7.49805701 21.23046875 9.9921875 C21 12 21 12 19 15 C15.23508833 16.25497056 11.72793525 16.10661648 7.8125 16.0625 C5.234375 16.041875 2.65625 16.02125 0 16 C0 10.72 0 5.44 0 0 Z " fill="#FDFDFD" transform="translate(385,557)"/>
<path d="M0 0 C0.66 0.33 1.32 0.66 2 1 C-4.27 7.27 -10.54 13.54 -17 20 C-17.66 19.67 -18.32 19.34 -19 19 C-13.0763504 12.14630879 -6.85369121 5.9236496 0 0 Z " fill="#D5AC14" transform="translate(78,63)"/>
<path d="M0 0 C0.66 0.33 1.32 0.66 2 1 C-1.96 4.96 -5.92 8.92 -10 13 C-10.66 12.67 -11.32 12.34 -12 12 C-8.27653164 7.57905197 -4.70478962 3.42166518 0 0 Z " fill="#4D5565" transform="translate(97,89)"/>
</svg>
